<svg version="1.1" xmlns="http://www.w3.org/2000/svg" viewBox="0 0 848.7328779880307 769.1310101057733" width="848.7328779880307" height="769.1310101057733">
  <!-- svg-source:excalidraw -->
  
  <defs>
    <style class="style-fonts">
      @font-face {
        font-family: "Virgil";
        src: url("https://excalidraw.com/Virgil.woff2");
      }
      @font-face {
        font-family: "Cascadia";
        src: url("https://excalidraw.com/Cascadia.woff2");
      }
      @font-face {
        font-family: "Assistant";
        src: url("https://excalidraw.com/Assistant-Regular.woff2");
      }
    </style>
    
  </defs>
  <rect x="0" y="0" width="848.7328779880307" height="769.1310101057733" fill="#ffffff"></rect><g stroke-linecap="round" transform="translate(83.68141509663201 231.55563812451697) rotate(0 94.99603350149715 62.81994585409953)"><path d="M4.65 12 C4.65 12, 4.65 12, 4.65 12 M4.65 12 C4.65 12, 4.65 12, 4.65 12 M1.11 22.17 C7.05 15.43, 11.97 8.95, 18.17 2.55 M1.11 22.17 C7.69 14.47, 14.66 5.48, 18.17 2.55 M2.82 26.3 C9.86 18.57, 15.11 12.65, 24.47 1.4 M2.82 26.3 C9.6 18.44, 18.1 8.35, 24.47 1.4 M3.21 31.94 C11.83 19.19, 21.99 10.34, 30.11 1 M3.21 31.94 C12.72 20.05, 23.58 8.56, 30.11 1 M2.95 38.34 C14.57 22.6, 26.88 10.35, 34.44 2.12 M2.95 38.34 C10.48 30.26, 18.06 21.64, 34.44 2.12 M2.69 44.74 C9.52 37.82, 16.11 28.22, 39.43 2.48 M2.69 44.74 C12.3 34.14, 20.47 24.35, 39.43 2.48 M3.09 50.38 C20.6 32.21, 37.59 13.68, 45.07 2.08 M3.09 50.38 C14.85 36.61, 26.11 23.33, 45.07 2.08 M2.82 56.78 C17.29 41.44, 31.06 26.31, 50.06 2.44 M2.82 56.78 C22.36 34.2, 39.51 14.06, 50.06 2.44 M3.22 62.42 C20.47 43.14, 37.3 24.47, 55.7 2.05 M3.22 62.42 C21.03 40.1, 41.71 19.53, 55.7 2.05 M2.96 68.82 C18.45 52.92, 33.8 32.78, 60.69 2.41 M2.96 68.82 C17.18 51.32, 31.88 36.05, 60.69 2.41 M2.7 75.22 C22.56 54.11, 36.56 33.83, 65.68 2.77 M2.7 75.22 C20.88 54.3, 37.33 33.1, 65.68 2.77 M3.09 80.86 C18.47 66.59, 31.06 47.73, 71.32 2.37 M3.09 80.86 C25.98 54.37, 48.07 28.4, 71.32 2.37 M2.83 87.26 C18.99 69.32, 34.26 50.94, 76.31 2.73 M2.83 87.26 C29.73 58.75, 54.53 29.35, 76.31 2.73 M3.22 92.9 C21.76 71.41, 41.69 47.47, 81.95 2.34 M3.22 92.9 C28.8 62.35, 55.95 30.91, 81.95 2.34 M0.99 101.57 C35.15 63.2, 64.58 25.49, 86.94 2.7 M0.99 101.57 C33.47 63.84, 66.05 27.49, 86.94 2.7 M2.04 106.45 C30.97 74.77, 61.35 38.38, 92.58 2.3 M2.04 106.45 C31.24 73.78, 60.34 39.17, 92.58 2.3 M3.75 110.59 C26.46 85.22, 50.63 57.21, 97.57 2.66 M3.75 110.59 C28.37 81.74, 53.63 52.69, 97.57 2.66 M5.46 114.72 C41.62 73.79, 76.12 30.88, 103.21 2.27 M5.46 114.72 C34.47 81.11, 64.38 48.02, 103.21 2.27 M8.48 117.35 C32.84 89.44, 55.64 66.97, 108.2 2.63 M8.48 117.35 C34.07 86.37, 60.28 56.45, 108.2 2.63 M11.5 119.97 C47.61 81.24, 81.86 39.95, 113.84 2.23 M11.5 119.97 C50.81 74.02, 92.4 27.32, 113.84 2.23 M14.51 122.59 C49.65 84.45, 81.28 43.73, 118.83 2.59 M14.51 122.59 C42.35 91.56, 69.61 60.41, 118.83 2.59 M18.19 124.46 C43.61 92.61, 71.34 62.01, 124.47 2.2 M18.19 124.46 C56.91 78.81, 94.51 36.11, 124.47 2.2 M23.18 124.82 C52.19 90.44, 82.89 58.99, 129.46 2.56 M23.18 124.82 C56.65 85.36, 90.26 46.97, 129.46 2.56 M27.51 125.94 C61.34 88.71, 93.32 49.21, 135.1 2.17 M27.51 125.94 C54.89 95.17, 80.14 64.73, 135.1 2.17 M32.49 126.3 C60.91 97.52, 85.94 66.59, 140.09 2.53 M32.49 126.3 C69.73 85, 105.12 42.95, 140.09 2.53 M37.48 126.66 C71.38 82.43, 110.64 43.59, 145.73 2.13 M37.48 126.66 C68.38 91.36, 98.46 56.11, 145.73 2.13 M43.12 126.26 C74.73 89.72, 107.04 50.82, 150.72 2.49 M43.12 126.26 C86.57 77.03, 130.35 27.17, 150.72 2.49 M48.11 126.62 C86.6 79.38, 126.72 35.08, 156.36 2.1 M48.11 126.62 C73.93 95.75, 99.04 67.97, 156.36 2.1 M53.75 126.23 C91.31 80.28, 131.66 37.99, 161.35 2.46 M53.75 126.23 C73.91 100.93, 96.99 75.65, 161.35 2.46 M58.74 126.59 C93.16 84.56, 125.32 48.02, 166.34 2.82 M58.74 126.59 C87.39 94.28, 115.77 60.02, 166.34 2.82 M64.38 126.19 C88.01 98.39, 113.13 67.45, 172.63 1.67 M64.38 126.19 C88.29 99.93, 112.33 71.58, 172.63 1.67 M69.37 126.55 C96.35 97.35, 121.06 66.58, 176.31 3.54 M69.37 126.55 C93.09 98.87, 116.82 70.9, 176.31 3.54 M75.02 126.16 C110.81 83.38, 147.41 40.94, 179.33 6.16 M75.02 126.16 C115.77 77.2, 158.08 30.28, 179.33 6.16 M80 126.52 C109.81 94.99, 135.95 64.81, 182.35 8.79 M80 126.52 C121.26 80.16, 161.39 34.6, 182.35 8.79 M85.65 126.13 C113.69 95.29, 140.12 61, 185.37 11.41 M85.65 126.13 C107.01 100.82, 126.68 78.37, 185.37 11.41 M90.63 126.49 C119.9 93.74, 150.68 57.36, 187.73 14.79 M90.63 126.49 C121.71 90.64, 154.96 52.89, 187.73 14.79 M96.28 126.09 C115.85 105.91, 136.24 81.93, 189.44 18.92 M96.28 126.09 C131.28 84.27, 168.21 43.74, 189.44 18.92 M101.26 126.45 C133.42 89.87, 165.54 54.76, 189.83 24.57 M101.26 126.45 C119.95 104.84, 141.22 81.62, 189.83 24.57 M106.25 126.81 C124.71 107.55, 139.53 85.63, 190.22 30.21 M106.25 126.81 C124.03 105, 143.44 85.13, 190.22 30.21 M111.89 126.42 C137.05 98.08, 161.23 69.47, 189.96 36.61 M111.89 126.42 C139.19 95.86, 166.22 65.75, 189.96 36.61 M116.88 126.78 C135.52 106.09, 153.56 86.09, 190.36 42.25 M116.88 126.78 C135.23 105.5, 153.97 84.17, 190.36 42.25 M122.52 126.38 C140.28 104.6, 157.74 83.95, 190.1 48.65 M122.52 126.38 C148.35 96.02, 174.96 66.09, 190.1 48.65 M127.51 126.74 C147.35 106.46, 164.99 83.57, 189.84 55.05 M127.51 126.74 C140.49 112.79, 153.17 96.3, 189.84 55.05 M133.15 126.35 C151.74 100.97, 171.54 79.36, 190.23 60.69 M133.15 126.35 C151.94 103.68, 171.44 81.57, 190.23 60.69 M138.14 126.71 C153.19 110.14, 168.66 90.23, 189.97 67.09 M138.14 126.71 C149.66 112.88, 160.45 100.63, 189.97 67.09 M143.78 126.31 C156.47 113.41, 167.94 99.96, 190.36 72.73 M143.78 126.31 C161.38 103.96, 179.98 83, 190.36 72.73 M148.77 126.67 C165.12 108, 178.07 93.26, 190.1 79.13 M148.77 126.67 C156.58 116.5, 165.46 107.31, 190.1 79.13 M154.41 126.28 C167.65 110.87, 183.48 95.35, 190.5 84.77 M154.41 126.28 C164.83 114.28, 173.07 103.98, 190.5 84.77 M159.4 126.64 C170.01 114.42, 179.31 100.39, 190.23 91.17 M159.4 126.64 C170.11 114.77, 180.21 103.82, 190.23 91.17 M165.7 125.49 C174.25 116.74, 177.91 108.44, 191.94 95.3 M165.7 125.49 C171.47 118.3, 177.92 110.38, 191.94 95.3 M172.65 123.59 C180.8 116.43, 183.78 110.73, 191.02 102.45 M172.65 123.59 C177.86 116.76, 184.32 111.19, 191.02 102.45" stroke="#ffec99" stroke-width="0.5" fill="none"></path><path d="M31.41 0 C65.31 1.95, 99.89 2.01, 158.58 0 M31.41 0 C71.6 1.19, 113.46 0.48, 158.58 0 M158.58 0 C179.86 -0.39, 189.67 10.16, 189.99 31.41 M158.58 0 C181.27 2.05, 189.03 11.37, 189.99 31.41 M189.99 31.41 C190.23 50.44, 190.51 69.33, 189.99 94.23 M189.99 31.41 C191.46 44.99, 191.31 57.78, 189.99 94.23 M189.99 94.23 C189.24 115.85, 177.68 127.26, 158.58 125.64 M189.99 94.23 C190.48 113.15, 177.83 125.1, 158.58 125.64 M158.58 125.64 C110.78 128, 67.83 124.67, 31.41 125.64 M158.58 125.64 C116.96 124.44, 75.69 124.71, 31.41 125.64 M31.41 125.64 C8.63 124.24, 1.18 116.25, 0 94.23 M31.41 125.64 C10.52 126.05, 2.03 116.53, 0 94.23 M0 94.23 C-2.61 72.31, -2.09 46.77, 0 31.41 M0 94.23 C-0.19 81.11, -1.19 69.07, 0 31.41 M0 31.41 C-1.88 11.31, 8.54 -1.72, 31.41 0 M0 31.41 C0.54 12.34, 10.6 -1.02, 31.41 0" stroke="#1e1e1e" stroke-width="1" fill="none"></path></g><g transform="translate(139.3692143726753 278.57905879522883) rotate(0 39.74772644042969 14.834336588229853)"><text x="0" y="0" font-family="Virgil, Segoe UI Emoji" font-size="23.734938541167768px" fill="#1e1e1e" text-anchor="start" style="white-space: pre;" direction="ltr" dominant-baseline="text-before-edge">Údržba</text></g><g transform="translate(164.5844506631663 10) rotate(0 216.4139404296875 22.5)"><text x="0" y="0" font-family="Virgil, Segoe UI Emoji" font-size="36px" fill="#1e1e1e" text-anchor="start" style="white-space: pre;" direction="ltr" dominant-baseline="text-before-edge">Životní cyklus databáze</text></g><g stroke-linecap="round" transform="translate(10 444.9422487304863) rotate(0 94.99603350149715 62.819945854099515)"><path d="M4.65 12 C4.65 12, 4.65 12, 4.65 12 M4.65 12 C4.65 12, 4.65 12, 4.65 12 M1.11 22.17 C4.13 18.7, 7.24 11.61, 18.17 2.55 M1.11 22.17 C6.99 13.77, 14.35 6.64, 18.17 2.55 M0.85 28.57 C8.16 21.4, 14.59 11.99, 24.47 1.4 M0.85 28.57 C9.56 19.13, 17.93 9.78, 24.47 1.4 M0.59 34.96 C9.47 26.8, 14.17 18.31, 30.11 1 M0.59 34.96 C6.79 27.51, 12.49 21.48, 30.11 1 M0.98 40.61 C13.91 24.55, 25.73 9.93, 35.76 0.61 M0.98 40.61 C14.91 25.66, 27.4 9.75, 35.76 0.61 M0.72 47 C12.14 33.69, 23.73 21.04, 41.4 0.21 M0.72 47 C11.26 36.01, 20.21 24.09, 41.4 0.21 M0.46 53.4 C19.33 33.77, 35.59 15.18, 46.39 0.57 M0.46 53.4 C12.85 38.08, 27.12 23.64, 46.39 0.57 M0.86 59.04 C14.71 40.85, 31.59 23.27, 52.03 0.18 M0.86 59.04 C15.29 43.18, 28.25 27.69, 52.03 0.18 M0.59 65.44 C16.36 47.49, 28.18 34.33, 57.02 0.54 M0.59 65.44 C17.25 45.99, 33.77 25, 57.02 0.54 M0.99 71.09 C18.46 52.77, 33.44 34.82, 62.66 0.14 M0.99 71.09 C21.62 47.45, 43.21 22.47, 62.66 0.14 M0.73 77.48 C17.87 57.94, 35.69 33.2, 67.65 0.5 M0.73 77.48 C17.38 59.67, 32.08 40.52, 67.65 0.5 M0.47 83.88 C25.45 53.49, 52.46 24.18, 73.29 0.11 M0.47 83.88 C18.93 64.69, 36.18 44.62, 73.29 0.11 M0.86 89.52 C17.64 68.94, 35.34 49.48, 78.28 0.47 M0.86 89.52 C23.11 64.68, 44.94 39.32, 78.28 0.47 M0.6 95.92 C20.27 72.1, 42.02 50.36, 83.92 0.07 M0.6 95.92 C23.08 70.68, 43.83 46.62, 83.92 0.07 M0.99 101.57 C18.22 80.22, 36.8 57.6, 88.91 0.43 M0.99 101.57 C29.79 68.77, 58.18 35.92, 88.91 0.43 M2.04 106.45 C25.91 79.34, 47.88 53.14, 93.89 0.79 M2.04 106.45 C35.72 68.79, 68.5 29.63, 93.89 0.79 M3.75 110.59 C29.53 78.86, 54.28 51.37, 99.54 0.4 M3.75 110.59 C29.82 80.83, 55.48 51.92, 99.54 0.4 M5.46 114.72 C26.2 90.07, 49.35 65.29, 104.52 0.76 M5.46 114.72 C30.35 83.88, 55.81 54.72, 104.52 0.76 M8.48 117.35 C44.55 76.72, 83.38 35.48, 110.17 0.37 M8.48 117.35 C39.66 80.11, 71.57 41.83, 110.17 0.37 M11.5 119.97 C49.31 76.28, 89.47 31.46, 115.15 0.73 M11.5 119.97 C43.19 81.25, 76.42 44.02, 115.15 0.73 M14.51 122.59 C48.36 80.04, 82.04 40.97, 120.8 0.33 M14.51 122.59 C44.12 89.41, 73.7 55.22, 120.8 0.33 M18.19 124.46 C47.65 90.79, 76.47 54.43, 125.78 0.69 M18.19 124.46 C45.37 92.21, 72.17 60.52, 125.78 0.69 M23.18 124.82 C65.35 77.84, 110.16 25.32, 131.43 0.3 M23.18 124.82 C50.2 91.58, 78.27 60.22, 131.43 0.3 M27.51 125.94 C65.27 84.86, 98.58 42.59, 136.41 0.66 M27.51 125.94 C54.86 94.35, 84.19 62.38, 136.41 0.66 M33.15 125.54 C60.5 94.31, 86.23 67.46, 142.06 0.26 M33.15 125.54 C72.85 78.75, 113.61 31.94, 142.06 0.26 M38.14 125.9 C65.42 94.52, 93.56 61.29, 147.04 0.62 M38.14 125.9 C67.47 93.51, 96.26 60.81, 147.04 0.62 M43.78 125.51 C80.19 85.53, 114.34 41.54, 152.69 0.23 M43.78 125.51 C70.96 92.44, 99.16 59.91, 152.69 0.23 M48.77 125.87 C88.17 80.9, 128.09 34.86, 157.67 0.59 M48.77 125.87 C74.59 96.15, 98.91 65.71, 157.67 0.59 M54.41 125.47 C96.67 78.31, 137.9 30.92, 162.66 0.95 M54.41 125.47 C92.11 83.02, 127.89 42.48, 162.66 0.95 M59.4 125.83 C93.34 87.66, 127.03 46.94, 167.65 1.31 M59.4 125.83 C97.46 82.67, 134.26 40.63, 167.65 1.31 M65.04 125.44 C97.45 87.22, 131.45 48, 172.63 1.67 M65.04 125.44 C99.69 85.01, 134.63 45.47, 172.63 1.67 M70.03 125.8 C110.01 81.44, 148.85 33.65, 176.31 3.54 M70.03 125.8 C108.52 79.18, 147.55 34.7, 176.31 3.54 M75.02 126.16 C104.07 92.07, 132.89 60.83, 179.33 6.16 M75.02 126.16 C114.42 82.83, 153.81 37.91, 179.33 6.16 M80.66 125.77 C115.61 86.39, 149.47 47.34, 182.35 8.79 M80.66 125.77 C106.47 94.56, 133.13 62.24, 182.35 8.79 M85.65 126.13 C105.34 101.65, 125.05 80.32, 185.37 11.41 M85.65 126.13 C116.87 89.81, 149.24 52.68, 185.37 11.41 M91.29 125.73 C113.56 105.36, 129.62 80.35, 187.07 15.54 M91.29 125.73 C112.73 100.39, 135 73.27, 187.07 15.54 M96.28 126.09 C124.5 90.87, 151.63 57.23, 188.12 20.43 M96.28 126.09 C116.19 103.26, 136.51 80.22, 188.12 20.43 M101.92 125.7 C131.88 94.89, 159.85 61.24, 189.83 24.57 M101.92 125.7 C124.85 100.21, 145.5 75.66, 189.83 24.57 M106.91 126.06 C138.47 89.94, 173.15 52.74, 190.22 30.21 M106.91 126.06 C124.31 104.96, 141.03 86.96, 190.22 30.21 M112.55 125.66 C131.57 107.2, 147.91 84.97, 189.96 36.61 M112.55 125.66 C136.61 98.43, 161.66 70.93, 189.96 36.61 M117.54 126.02 C139.13 101.87, 157.68 82.52, 190.36 42.25 M117.54 126.02 C135.88 105.41, 153.39 84.71, 190.36 42.25 M123.18 125.63 C137.28 110.78, 149 92.98, 190.1 48.65 M123.18 125.63 C148.9 95.47, 174.04 64.67, 190.1 48.65 M128.17 125.99 C150.53 100.61, 173.62 70.55, 189.84 55.05 M128.17 125.99 C153.4 97.88, 175.89 70.98, 189.84 55.05 M133.81 125.59 C153.86 104.81, 173.36 81.81, 190.23 60.69 M133.81 125.59 C151.27 103.35, 169.81 83.24, 190.23 60.69 M138.8 125.95 C151.75 112.82, 159.84 99.9, 189.97 67.09 M138.8 125.95 C154.81 107.39, 169.16 89.52, 189.97 67.09 M144.44 125.56 C154.7 112.1, 166.93 100.42, 190.36 72.73 M144.44 125.56 C158.03 111.61, 170.05 95.84, 190.36 72.73 M149.43 125.92 C158.54 117.31, 165.29 107.32, 190.1 79.13 M149.43 125.92 C163.17 108.13, 178.73 91.1, 190.1 79.13 M155.07 125.52 C167.83 112.97, 180.57 98.14, 190.5 84.77 M155.07 125.52 C166.55 114.15, 175.74 101.07, 190.5 84.77 M160.06 125.88 C168.89 113.51, 179.05 101.57, 190.23 91.17 M160.06 125.88 C170.41 114.01, 181.2 103.08, 190.23 91.17 M166.35 124.73 C172.63 118.72, 177.12 112.78, 189.97 97.57 M166.35 124.73 C173.94 115.31, 184.05 105.95, 189.97 97.57 M172.65 123.59 C178.41 117.07, 182.3 113.52, 189.06 104.72 M172.65 123.59 C177.25 117.7, 181.9 111.35, 189.06 104.72" stroke="#ffec99" stroke-width="0.5" fill="none"></path><path d="M31.41 0 C60.74 -0.2, 91.19 -0.74, 158.58 0 M31.41 0 C76.62 1.32, 122.71 0.13, 158.58 0 M158.58 0 C178.52 -1.64, 188.7 9.01, 189.99 31.41 M158.58 0 C181.16 -1.44, 190.21 9.66, 189.99 31.41 M189.99 31.41 C191.74 47.47, 190.43 58.52, 189.99 94.23 M189.99 31.41 C190.29 55.01, 189.9 79.89, 189.99 94.23 M189.99 94.23 C191.71 115.66, 179.01 127.06, 158.58 125.64 M189.99 94.23 C188.4 115.48, 178.85 126.06, 158.58 125.64 M158.58 125.64 C118.42 126.63, 76.22 125.06, 31.41 125.64 M158.58 125.64 C121.05 126.17, 82.76 126.9, 31.41 125.64 M31.41 125.64 C11.07 126.69, -1.12 114.57, 0 94.23 M31.41 125.64 C9.57 127.15, -1.76 116.13, 0 94.23 M0 94.23 C0.27 70.39, 1.5 45.96, 0 31.41 M0 94.23 C-0.38 77.21, -0.34 61.24, 0 31.41 M0 31.41 C-0.43 9.08, 11.15 1.21, 31.41 0 M0 31.41 C-0.8 9.72, 10.69 -0.61, 31.41 0" stroke="#1e1e1e" stroke-width="1" fill="none"></path></g><g transform="translate(36.544933413878084 491.16562057307317) rotate(0 46.41584777832031 14.83433658822986)"><text x="0" y="0" font-family="Virgil, Segoe UI Emoji" font-size="23.734938541167768px" fill="#1e1e1e" text-anchor="start" style="white-space: pre;" direction="ltr" dominant-baseline="text-before-edge">Operace</text></g><g stroke-linecap="round" transform="translate(145.22459890498726 633.4911183975742) rotate(0 94.99603350149715 62.81994585409953)"><path d="M31.41 0 C75.78 0.52, 122.04 1.05, 158.58 0 M31.41 0 C64.11 -0.44, 96.72 -0.83, 158.58 0 M158.58 0 C177.93 1.9, 189.82 10.44, 189.99 31.41 M158.58 0 C177.49 -1.49, 189.4 10.41, 189.99 31.41 M189.99 31.41 C190.23 49.49, 190.03 65.32, 189.99 94.23 M189.99 31.41 C189.88 53.82, 189.85 76.53, 189.99 94.23 M189.99 94.23 C189.2 116.13, 180.65 126.99, 158.58 125.64 M189.99 94.23 C190.97 113.28, 180.91 123.42, 158.58 125.64 M158.58 125.64 C117.7 125.79, 79.65 127.19, 31.41 125.64 M158.58 125.64 C119.59 125.59, 81.36 126.76, 31.41 125.64 M31.41 125.64 C11.42 125.36, 0.92 116.59, 0 94.23 M31.41 125.64 C8.85 126.82, -0.63 113.07, 0 94.23 M0 94.23 C0.43 77.05, -1.07 62.37, 0 31.41 M0 94.23 C-0.69 77.02, 0.23 59.06, 0 31.41 M0 31.41 C0.23 11.43, 10.9 -0.18, 31.41 0 M0 31.41 C2.14 10.05, 10.88 1.06, 31.41 0" stroke="#1e1e1e" stroke-width="1" fill="none"></path></g><g transform="translate(185.3775687219122 682.4307520739251) rotate(0 57.87743377685547 14.83433658822986)"><text x="0" y="0" font-family="Virgil, Segoe UI Emoji" font-size="23.734938541167768px" fill="#1e1e1e" text-anchor="start" style="white-space: pre;" direction="ltr" dominant-baseline="text-before-edge">Testování</text></g><g stroke-linecap="round" transform="translate(427.12713598845926 630.7048535037175) rotate(0 94.99603350149715 62.81994585409953)"><path d="M31.41 0 C67.77 -1.68, 106.73 -2.15, 158.58 0 M31.41 0 C65.02 -0.77, 97.67 -1.01, 158.58 0 M158.58 0 C178.57 -1.72, 190.22 11.44, 189.99 31.41 M158.58 0 C177.79 -1.67, 191.96 10.53, 189.99 31.41 M189.99 31.41 C191.61 50.17, 188.95 71.47, 189.99 94.23 M189.99 31.41 C189.93 53.19, 190.2 74.77, 189.99 94.23 M189.99 94.23 C190.59 116.34, 179.13 127.51, 158.58 125.64 M189.99 94.23 C190.8 115.52, 179.02 126.67, 158.58 125.64 M158.58 125.64 C120.17 125.24, 84.42 126.73, 31.41 125.64 M158.58 125.64 C121.73 126.41, 87.17 126.51, 31.41 125.64 M31.41 125.64 C11.54 125.17, -0.63 116.19, 0 94.23 M31.41 125.64 C9.81 124.27, -1.75 112.87, 0 94.23 M0 94.23 C0.44 71.81, -0.95 52.03, 0 31.41 M0 94.23 C-0.07 77.51, -0.3 60.75, 0 31.41 M0 31.41 C-0.79 11.04, 9.2 0.62, 31.41 0 M0 31.41 C-1.2 10.11, 8.55 -1.31, 31.41 0" stroke="#1e1e1e" stroke-width="1" fill="none"></path></g><g transform="translate(450.81493526450254 677.7282741744293) rotate(0 76.0427474975586 14.83433658822986)"><text x="0" y="0" font-family="Virgil, Segoe UI Emoji" font-size="23.734938541167768px" fill="#1e1e1e" text-anchor="start" style="white-space: pre;" direction="ltr" dominant-baseline="text-before-edge">Implementace</text></g><g stroke-linecap="round" transform="translate(648.7408109850364 424.00276935785337) rotate(0 94.99603350149715 62.81994585409953)"><path d="M31.41 0 C69.48 -0.18, 108.69 -0.51, 158.58 0 M31.41 0 C68.82 0.37, 104.12 1.06, 158.58 0 M158.58 0 C177.93 -0.63, 190.59 10.65, 189.99 31.41 M158.58 0 C178.47 -0.22, 190.33 8.89, 189.99 31.41 M189.99 31.41 C189.31 54.92, 189.98 75.75, 189.99 94.23 M189.99 31.41 C190.21 55.12, 190.8 78.5, 189.99 94.23 M189.99 94.23 C189 114.59, 181.04 126.31, 158.58 125.64 M189.99 94.23 C190.73 113.42, 178.85 126.63, 158.58 125.64 M158.58 125.64 C124.9 124.36, 89.15 126.73, 31.41 125.64 M158.58 125.64 C130.55 124.13, 103.76 124.12, 31.41 125.64 M31.41 125.64 C9.6 127.25, 1.57 115.92, 0 94.23 M31.41 125.64 C8.62 126.58, -1.64 116.53, 0 94.23 M0 94.23 C1.31 78.2, 2.11 59.31, 0 31.41 M0 94.23 C0.33 69.02, -0.64 45.95, 0 31.41 M0 31.41 C-0.74 9.73, 9.94 -0.46, 31.41 0 M0 31.41 C1.98 8.53, 10.78 -0.01, 31.41 0" stroke="#1e1e1e" stroke-width="1" fill="none"></path></g><g transform="translate(704.4286102610797 471.0261900285652) rotate(0 31.465957641601562 14.83433658822986)"><text x="0" y="0" font-family="Virgil, Segoe UI Emoji" font-size="23.734938541167768px" fill="#1e1e1e" text-anchor="start" style="white-space: pre;" direction="ltr" dominant-baseline="text-before-edge">Návrh</text></g><g stroke-linecap="round" transform="translate(543.5222759945384 219.9422977005504) rotate(0 94.99603350149715 62.81994585409953)"><path d="M31.41 0 C61 0.48, 85.92 1.25, 158.58 0 M31.41 0 C79.72 0.44, 126.73 -0.4, 158.58 0 M158.58 0 C179.48 -0.63, 189.73 8.92, 189.99 31.41 M158.58 0 C180.44 -0.94, 191.61 12, 189.99 31.41 M189.99 31.41 C188.43 48.03, 188.77 67.73, 189.99 94.23 M189.99 31.41 C189.95 47.23, 189.55 65.45, 189.99 94.23 M189.99 94.23 C190.73 116.82, 177.81 125.58, 158.58 125.64 M189.99 94.23 C190.14 116.72, 178.19 124.02, 158.58 125.64 M158.58 125.64 C117.16 125.58, 76.16 127.27, 31.41 125.64 M158.58 125.64 C122.67 125.36, 88.25 125.17, 31.41 125.64 M31.41 125.64 C10.26 126.91, -0.81 114.39, 0 94.23 M31.41 125.64 C10.39 126.57, 0.22 116.79, 0 94.23 M0 94.23 C0.1 76.7, -1.36 57.56, 0 31.41 M0 94.23 C0.87 70.11, 0.16 43.76, 0 31.41 M0 31.41 C-0.17 8.94, 10.08 1.13, 31.41 0 M0 31.41 C-2.06 9.99, 11.34 -0.53, 31.41 0" stroke="#1e1e1e" stroke-width="1" fill="none"></path></g><g transform="translate(595.3589714867899 266.96571837126226) rotate(0 44.624237060546875 14.834336588229855)"><text x="0" y="0" font-family="Virgil, Segoe UI Emoji" font-size="23.734938541167768px" fill="#1e1e1e" text-anchor="start" style="white-space: pre;" direction="ltr" dominant-baseline="text-before-edge">Analýza</text></g><g stroke-linecap="round" transform="translate(402.4525144210427 92.29578663941507) rotate(0 71.24721737766521 47.11508652463525)"><path d="M5.61 6.21 C5.61 6.21, 5.61 6.21, 5.61 6.21 M5.61 6.21 C5.61 6.21, 5.61 6.21, 5.61 6.21 M0.76 17.89 C2.28 13.71, 5.7 12.07, 14.54 2.04 M0.76 17.89 C5.08 12.49, 10.34 7.56, 14.54 2.04 M0.5 24.28 C7.15 14.67, 16.43 9.12, 20.18 1.64 M0.5 24.28 C6.31 17.88, 12.33 11.93, 20.18 1.64 M0.24 30.68 C9.4 18.24, 20.69 9.36, 25.17 2 M0.24 30.68 C6.65 25.23, 12.01 19.41, 25.17 2 M0.63 36.33 C8.41 28.76, 17.58 20.37, 30.81 1.61 M0.63 36.33 C7.47 28.64, 12.87 20.97, 30.81 1.61 M0.37 42.72 C10.86 28.94, 23.24 12.98, 35.8 1.97 M0.37 42.72 C8.86 33.29, 16.03 24.12, 35.8 1.97 M0.77 48.37 C11.36 39.17, 18.26 28.27, 41.44 1.57 M0.77 48.37 C8.46 37.37, 17.54 27.21, 41.44 1.57 M0.5 54.76 C9.83 40.66, 22.55 30.91, 46.43 1.93 M0.5 54.76 C15.94 37.58, 29.94 21.27, 46.43 1.93 M0.24 61.16 C19.81 37.43, 38.92 13.63, 52.07 1.54 M0.24 61.16 C18.42 42.18, 34.43 21.34, 52.07 1.54 M0.64 66.8 C15.25 50.28, 30.51 34.99, 57.06 1.9 M0.64 66.8 C18.86 44.95, 38.11 23.71, 57.06 1.9 M0.38 73.2 C22.96 46.54, 45.67 24.8, 62.7 1.5 M0.38 73.2 C16.62 53.99, 32.96 37.05, 62.7 1.5 M2.08 77.34 C22.48 53.67, 43.18 32.1, 67.69 1.86 M2.08 77.34 C17.8 57.63, 34.52 38.83, 67.69 1.86 M3.13 82.22 C19.17 62.49, 38.64 42.65, 73.33 1.47 M3.13 82.22 C26.07 54.68, 50.79 26.88, 73.33 1.47 M4.84 86.36 C26.58 62.42, 51.27 34.1, 78.32 1.83 M4.84 86.36 C28.46 58.93, 51.38 33.5, 78.32 1.83 M7.86 88.98 C28.79 63.52, 53.5 38.86, 83.96 1.44 M7.86 88.98 C37.49 56.1, 65.65 22.04, 83.96 1.44 M10.22 92.36 C36.82 62.03, 59.74 33.69, 88.95 1.8 M10.22 92.36 C36.02 64.88, 60.88 35.18, 88.95 1.8 M15.21 92.72 C41.48 64.81, 65.66 36.24, 94.59 1.4 M15.21 92.72 C35.41 69.85, 57.02 45.11, 94.59 1.4 M19.54 93.84 C35.7 75.42, 54.32 55.48, 99.58 1.76 M19.54 93.84 C45.52 66.46, 68.92 37.97, 99.58 1.76 M23.87 94.95 C52.47 61.12, 80.3 30.07, 105.22 1.37 M23.87 94.95 C45.18 70.33, 66.06 45.59, 105.22 1.37 M29.51 94.56 C58.54 61.43, 89.67 25.4, 110.21 1.73 M29.51 94.56 C53.39 67.62, 75 40.94, 110.21 1.73 M34.5 94.92 C52.15 71.05, 71.98 52.08, 115.85 1.33 M34.5 94.92 C66.52 57.23, 98.96 21.13, 115.85 1.33 M40.14 94.52 C73.14 58.68, 102.5 21.16, 120.84 1.69 M40.14 94.52 C64.32 64.96, 89.78 36.33, 120.84 1.69 M45.13 94.88 C66.6 68.45, 90.69 43.7, 125.17 2.81 M45.13 94.88 C63.86 71.99, 81.64 50.9, 125.17 2.81 M50.77 94.49 C68.45 76.44, 85.04 56.91, 129.5 3.92 M50.77 94.49 C67.75 74.16, 84.18 55.05, 129.5 3.92 M55.76 94.85 C85.51 60.05, 115.99 26.54, 134.49 4.28 M55.76 94.85 C80.24 67.59, 103.7 39.53, 134.49 4.28 M61.4 94.45 C90.34 62.05, 121.21 26.57, 137.51 6.91 M61.4 94.45 C78.69 72.98, 97.19 53.95, 137.51 6.91 M66.39 94.81 C85.48 71.52, 104.49 52.63, 139.87 10.29 M66.39 94.81 C89.01 68.83, 110.77 43.6, 139.87 10.29 M72.03 94.42 C99.04 64.96, 123.67 36.91, 141.58 14.42 M72.03 94.42 C86.71 77.06, 101.41 58.25, 141.58 14.42 M77.02 94.78 C93.59 77.96, 106.75 56.99, 143.28 18.55 M77.02 94.78 C91.97 76.75, 109.54 57.31, 143.28 18.55 M82.66 94.38 C99.4 76.06, 110.99 58.9, 143.02 24.95 M82.66 94.38 C97.71 78.89, 109.93 62.72, 143.02 24.95 M87.65 94.74 C103.6 76.52, 120.13 56.91, 143.42 30.59 M87.65 94.74 C106.46 72.6, 126.82 50.77, 143.42 30.59 M93.29 94.35 C104.49 78.26, 119.59 65.27, 143.15 36.99 M93.29 94.35 C108.59 77.01, 123.31 58.46, 143.15 36.99 M98.28 94.71 C105.51 85.32, 117.37 72.97, 142.89 43.39 M98.28 94.71 C112.77 77.02, 127.49 60.92, 142.89 43.39 M103.27 95.07 C113.13 84.44, 120.92 76.97, 143.29 49.03 M103.27 95.07 C116.78 80.39, 131.19 63.5, 143.29 49.03 M108.91 94.67 C114.21 85.82, 123.25 78.02, 143.03 55.43 M108.91 94.67 C120.81 81.43, 130.95 68.81, 143.03 55.43 M113.9 95.04 C121.68 88.23, 128.53 76.82, 143.42 61.07 M113.9 95.04 C124.43 81.99, 135.74 68.84, 143.42 61.07 M119.54 94.64 C125.63 85.76, 133 80.17, 143.16 67.47 M119.54 94.64 C128.2 84.4, 137.48 74.68, 143.16 67.47 M125.84 93.49 C131.01 87.33, 140 77.57, 144.21 72.36 M125.84 93.49 C130.65 87.34, 135.48 81.21, 144.21 72.36 M130.83 93.85 C133.7 90.79, 135.24 86.5, 142.64 80.27 M130.83 93.85 C133.8 89.34, 138 86.63, 142.64 80.27" stroke="#b2f2bb" stroke-width="0.5" fill="none"></path><path d="M23.56 0 C59.63 1.65, 98.18 1.83, 118.94 0 M23.56 0 C46.72 0.4, 67.49 0.98, 118.94 0 M118.94 0 C133.76 1.84, 144.14 6.63, 142.49 23.56 M118.94 0 C133.09 0.2, 144.07 7.48, 142.49 23.56 M142.49 23.56 C141.64 39.82, 142.15 60.04, 142.49 70.67 M142.49 23.56 C141.65 36.38, 142.47 50.54, 142.49 70.67 M142.49 70.67 C142.56 85.16, 135.38 95.34, 118.94 94.23 M142.49 70.67 C144.18 86.06, 136.23 95.04, 118.94 94.23 M118.94 94.23 C89.74 94.5, 63.39 91.79, 23.56 94.23 M118.94 94.23 C97.63 93.26, 77.37 94.07, 23.56 94.23 M23.56 94.23 C6.7 93.87, -1.98 87.55, 0 70.67 M23.56 94.23 C7.91 96.2, 1.43 85.75, 0 70.67 M0 70.67 C-0.96 57.69, -0.8 42.34, 0 23.56 M0 70.67 C0 53.69, 0.8 35.54, 0 23.56 M0 23.56 C-1.48 7.39, 7.9 -1.37, 23.56 0 M0 23.56 C1.01 8.92, 9.93 -1.89, 23.56 0" stroke="#1e1e1e" stroke-width="1" fill="none"></path></g><g transform="translate(433.9487685479651 118.62182724789128) rotate(0 39.689979553222656 17.5)"><text x="0" y="0" font-family="Virgil, Segoe UI Emoji" font-size="28px" fill="#1e1e1e" text-anchor="start" style="white-space: pre;" direction="ltr" dominant-baseline="text-before-edge">Start</text></g><g stroke-linecap="round" transform="translate(230.75485082855914 92.91693578373938) rotate(0 71.24721737766521 47.11508652463525)"><path d="M5.61 6.21 C5.61 6.21, 5.61 6.21, 5.61 6.21 M5.61 6.21 C5.61 6.21, 5.61 6.21, 5.61 6.21 M0.76 17.89 C2.73 12.99, 8.39 11.06, 15.19 1.28 M0.76 17.89 C3.78 14.15, 7.82 10.89, 15.19 1.28 M0.5 24.28 C4.96 19.54, 12.83 10.57, 20.84 0.89 M0.5 24.28 C6.31 16.27, 12.64 9.06, 20.84 0.89 M0.24 30.68 C7.43 23.27, 14.98 13.86, 26.48 0.49 M0.24 30.68 C9.34 21.26, 17.31 9.85, 26.48 0.49 M0.63 36.33 C12.34 23.73, 23.48 10.65, 32.12 0.1 M0.63 36.33 C8.08 27.67, 15.34 18.13, 32.12 0.1 M0.37 42.72 C12.58 30.18, 22.31 18.97, 37.11 0.46 M0.37 42.72 C14.05 27.55, 27.42 12.56, 37.11 0.46 M0.77 48.37 C12.62 33.82, 21.72 22.64, 42.75 0.06 M0.77 48.37 C16.39 29.78, 31.98 13.47, 42.75 0.06 M0.5 54.76 C13.73 38.01, 27.39 20.7, 47.74 0.42 M0.5 54.76 C14.73 38.18, 29.97 19.69, 47.74 0.42 M0.24 61.16 C18.12 38.84, 35.34 21.25, 53.38 0.03 M0.24 61.16 C19.57 38.95, 38.33 18.1, 53.38 0.03 M0.64 66.8 C11.85 53.63, 26.01 39.1, 58.37 0.39 M0.64 66.8 C23.13 41.13, 44.76 16.55, 58.37 0.39 M0.38 73.2 C25.33 43.96, 52.11 16.66, 64.01 0 M0.38 73.2 C19.66 51.47, 40.68 28.14, 64.01 0 M1.43 78.09 C17.77 60.99, 32.31 44.46, 69 0.36 M1.43 78.09 C18.8 58.67, 35.92 39.36, 69 0.36 M2.48 82.98 C29.05 53.97, 55.35 21.45, 73.99 0.72 M2.48 82.98 C24.04 58.57, 45.51 33.54, 73.99 0.72 M4.84 86.36 C25.86 61.54, 50.75 35.36, 79.63 0.32 M4.84 86.36 C22 66.17, 40.86 46.5, 79.63 0.32 M7.86 88.98 C35.45 53.55, 68.82 20.52, 84.62 0.68 M7.86 88.98 C26.88 68.1, 45.09 47.21, 84.62 0.68 M10.88 91.61 C34.32 62.79, 58.89 36.95, 90.26 0.29 M10.88 91.61 C41.58 56.91, 69.49 23.51, 90.26 0.29 M15.21 92.72 C39.85 63.33, 67.44 31.65, 95.25 0.65 M15.21 92.72 C31.97 72.9, 49.85 52.84, 95.25 0.65 M19.54 93.84 C37.34 71.37, 54.67 51.32, 100.89 0.25 M19.54 93.84 C39.18 72.22, 56.66 52.06, 100.89 0.25 M23.87 94.95 C45.03 68.57, 71.04 41.27, 105.88 0.61 M23.87 94.95 C53.06 62.8, 83.09 29.39, 105.88 0.61 M29.51 94.56 C58.83 62.69, 90.39 25.26, 111.52 0.22 M29.51 94.56 C59.29 59.67, 89.83 24.16, 111.52 0.22 M34.5 94.92 C53.93 71.89, 74.5 51.21, 116.51 0.58 M34.5 94.92 C63.53 61.83, 92.07 29.26, 116.51 0.58 M40.14 94.52 C72.3 58.6, 101.09 22.53, 121.49 0.94 M40.14 94.52 C63.6 66.14, 88.46 37.73, 121.49 0.94 M45.13 94.88 C65.01 72.9, 83.11 49.13, 125.83 2.05 M45.13 94.88 C70.83 66.53, 96.96 34.92, 125.83 2.05 M50.77 94.49 C81.13 60.17, 111.09 25.06, 130.16 3.17 M50.77 94.49 C71.22 69.54, 92.63 46.65, 130.16 3.17 M55.76 94.85 C74.72 73.35, 90.53 51.48, 134.49 4.28 M55.76 94.85 C84.32 61.43, 115.59 25.6, 134.49 4.28 M61.4 94.45 C81.68 72.04, 100.58 50.05, 137.51 6.91 M61.4 94.45 C81.15 71.39, 101.47 48.86, 137.51 6.91 M66.39 94.81 C95.69 61.55, 123.51 29.85, 139.87 10.29 M66.39 94.81 C86.28 73, 106.08 49.41, 139.87 10.29 M72.03 94.42 C86.81 79.84, 100.09 62.8, 140.92 15.17 M72.03 94.42 C91.44 72.82, 110.17 49, 140.92 15.17 M77.02 94.78 C99.97 69.56, 125.32 40.01, 141.97 20.06 M77.02 94.78 C96.74 72.77, 117.62 49.58, 141.97 20.06 M82.66 94.38 C102.55 72.7, 121.53 48.62, 142.37 25.71 M82.66 94.38 C94.5 78.3, 109.19 64.83, 142.37 25.71 M87.65 94.74 C105.1 75.41, 120.16 59.05, 142.1 32.1 M87.65 94.74 C99.58 81.09, 112.98 66.37, 142.1 32.1 M93.29 94.35 C103.52 80.84, 117.45 66.76, 142.5 37.75 M93.29 94.35 C112.23 73.45, 129.85 52.32, 142.5 37.75 M98.28 94.71 C106.59 82.52, 116.4 72.17, 142.24 44.14 M98.28 94.71 C113.95 76.06, 129.6 57.31, 142.24 44.14 M103.27 95.07 C117.13 78.62, 128.67 66.2, 142.63 49.79 M103.27 95.07 C117.5 79.63, 130.95 64.49, 142.63 49.79 M108.91 94.67 C119.87 81.66, 132.83 68.73, 142.37 56.18 M108.91 94.67 C118.56 83.5, 127.38 72.6, 142.37 56.18 M113.9 95.04 C119.32 85.44, 128.18 78.93, 142.76 61.83 M113.9 95.04 C124.11 83.04, 132.4 72.12, 142.76 61.83 M119.54 94.64 C126.02 87.42, 132.82 78.81, 142.5 68.23 M119.54 94.64 C125.86 86.05, 132.9 78.93, 142.5 68.23 M125.84 93.49 C130.02 85.92, 138.38 80.39, 141.59 75.38 M125.84 93.49 C129.45 88.86, 135.19 83.64, 141.59 75.38 M132.8 91.59 C133.49 89.84, 136.03 87.24, 140.01 83.29 M132.8 91.59 C135.13 88.92, 138.6 85.33, 140.01 83.29" stroke="#ffc9c9" stroke-width="0.5" fill="none"></path><path d="M23.56 0 C59.98 -0.52, 94.81 0.83, 118.94 0 M23.56 0 C58.9 1.53, 96.1 1.59, 118.94 0 M118.94 0 C136.18 -1, 141.88 8.85, 142.49 23.56 M118.94 0 C134.79 1.45, 144.52 9.62, 142.49 23.56 M142.49 23.56 C143.47 33.64, 140.86 44.22, 142.49 70.67 M142.49 23.56 C141.54 39.92, 141.61 55.27, 142.49 70.67 M142.49 70.67 C140.97 88.09, 134.26 96.04, 118.94 94.23 M142.49 70.67 C141.61 86.73, 133.64 92.39, 118.94 94.23 M118.94 94.23 C95.03 94.34, 69.4 93.22, 23.56 94.23 M118.94 94.23 C82.57 93.22, 46.9 92.91, 23.56 94.23 M23.56 94.23 C9.48 95.18, -1 84.87, 0 70.67 M23.56 94.23 C8.95 95.51, 0.5 85.45, 0 70.67 M0 70.67 C-0.87 56.72, 1.6 41, 0 23.56 M0 70.67 C-0.7 54.02, 0.46 37.65, 0 23.56 M0 23.56 C-1.33 9.12, 9 -1.32, 23.56 0 M0 23.56 C-0.83 6.7, 6.05 1.67, 23.56 0" stroke="#1e1e1e" stroke-width="1" fill="none"></path></g><g transform="translate(262.25110495548154 119.24297639221561) rotate(0 37.561981201171875 17.5)"><text x="0" y="0" font-family="Virgil, Segoe UI Emoji" font-size="28px" fill="#1e1e1e" text-anchor="start" style="white-space: pre;" direction="ltr" dominant-baseline="text-before-edge">Konec</text></g><g stroke-linecap="round"><g transform="translate(562.9182916482837 149.01810253244673) rotate(0 23.74886509389603 30.16742037027987)"><path d="M-0.93 -0.12 C7.02 9.9, 40.43 49.29, 48.59 59.37 M0.79 -1.23 C8.59 8.97, 40.42 49.91, 48.22 60.4" stroke="#1e1e1e" stroke-width="1" fill="none"></path></g><g transform="translate(562.9182916482837 149.01810253244673) rotate(0 23.74886509389603 30.16742037027987)"><path d="M27.17 46.9 C34.85 53.99, 41.39 58.21, 48.22 60.4 M27.17 46.9 C33.35 51.78, 38.83 55.38, 48.22 60.4" stroke="#1e1e1e" stroke-width="1" fill="none"></path></g><g transform="translate(562.9182916482837 149.01810253244673) rotate(0 23.74886509389603 30.16742037027987)"><path d="M40.77 36.53 C43.24 47.44, 44.65 55.58, 48.22 60.4 M40.77 36.53 C42.74 44.46, 44.13 51.18, 48.22 60.4" stroke="#1e1e1e" stroke-width="1" fill="none"></path></g></g><mask></mask><g stroke-linecap="round"><g transform="translate(688.7229740547155 358.2645666876062) rotate(0 6.418604246448012 20.539538485639923)"><path d="M-0.23 0.25 C1.89 7.27, 10.24 34.8, 12.34 41.62 M0.65 -0.1 C2.97 6.82, 11.18 33.95, 13.32 40.93" stroke="#1e1e1e" stroke-width="1" fill="none"></path></g><g transform="translate(688.7229740547155 358.2645666876062) rotate(0 6.418604246448012 20.539538485639923)"><path d="M0.38 23.73 C3.71 26.79, 7.2 30.8, 13.32 40.93 M0.38 23.73 C3.99 28.51, 8.6 34.7, 13.32 40.93" stroke="#1e1e1e" stroke-width="1" fill="none"></path></g><g transform="translate(688.7229740547155 358.2645666876062) rotate(0 6.418604246448012 20.539538485639923)"><path d="M14.46 19.44 C14.55 23.45, 14.81 28.45, 13.32 40.93 M14.46 19.44 C13.74 25.56, 14.01 33.07, 13.32 40.93" stroke="#1e1e1e" stroke-width="1" fill="none"></path></g></g><mask></mask><g stroke-linecap="round"><g transform="translate(713.1136897792435 563.6599025739417) rotate(0 -36.58607358679194 43.64652846387196)"><path d="M-0.91 -0.44 C-12.92 14.11, -60.88 71.86, -72.83 86.4 M0.81 -1.72 C-11.25 13.04, -61.29 72.54, -73.59 87.48" stroke="#1e1e1e" stroke-width="1" fill="none"></path></g><g transform="translate(713.1136897792435 563.6599025739417) rotate(0 -36.58607358679194 43.64652846387196)"><path d="M-65.12 63.95 C-68.02 69.95, -70.73 75.88, -73.59 87.48 M-65.12 63.95 C-67.3 69.83, -68.43 76.93, -73.59 87.48" stroke="#1e1e1e" stroke-width="1" fill="none"></path></g><g transform="translate(713.1136897792435 563.6599025739417) rotate(0 -36.58607358679194 43.64652846387196)"><path d="M-51.98 74.9 C-57.86 78.25, -63.64 81.62, -73.59 87.48 M-51.98 74.9 C-57.7 77.86, -62.25 82.11, -73.59 87.48" stroke="#1e1e1e" stroke-width="1" fill="none"></path></g></g><mask></mask><g stroke-linecap="round"><g transform="translate(421.7089982264281 672.7761747635575) rotate(0 -30.167420370279956 0.6418506306320069)"><path d="M0.21 -1.08 C-10.04 -0.8, -50.27 0.98, -60.55 1.35 M-1.14 0.97 C-11.65 1.49, -51.95 2.68, -61.61 2.92" stroke="#1e1e1e" stroke-width="1" fill="none"></path></g><g transform="translate(421.7089982264281 672.7761747635575) rotate(0 -30.167420370279956 0.6418506306320069)"><path d="M-38.36 -6.28 C-49.02 -3.11, -55.95 -1.1, -61.61 2.92 M-38.36 -6.28 C-45.57 -2.92, -51.85 -1.52, -61.61 2.92" stroke="#1e1e1e" stroke-width="1" fill="none"></path></g><g transform="translate(421.7089982264281 672.7761747635575) rotate(0 -30.167420370279956 0.6418506306320069)"><path d="M-37.89 10.81 C-48.68 7.5, -55.79 3, -61.61 2.92 M-37.89 10.81 C-45.15 9.27, -51.56 5.77, -61.61 2.92" stroke="#1e1e1e" stroke-width="1" fill="none"></path></g></g><mask></mask><g stroke-linecap="round"><g transform="translate(131.58810587500477 658.5242490541862) rotate(0 -13.822630767996088 -34.59496474722627)"><path d="M-0.21 0.8 C-4.68 -10.76, -23.21 -56.64, -27.92 -68.26 M-1.78 0.17 C-6.34 -11.2, -24.97 -58.62, -29.01 -69.89" stroke="#1e1e1e" stroke-width="1" fill="none"></path></g><g transform="translate(131.58810587500477 658.5242490541862) rotate(0 -13.822630767996088 -34.59496474722627)"><path d="M-12.69 -50.95 C-14.97 -55.43, -18.19 -60.37, -29.01 -69.89 M-12.69 -50.95 C-17.18 -58.06, -23.99 -63.11, -29.01 -69.89" stroke="#1e1e1e" stroke-width="1" fill="none"></path></g><g transform="translate(131.58810587500477 658.5242490541862) rotate(0 -13.822630767996088 -34.59496474722627)"><path d="M-28.68 -44.89 C-27.65 -50.62, -27.49 -56.83, -29.01 -69.89 M-28.68 -44.89 C-27.94 -53.87, -29.55 -60.89, -29.01 -69.89" stroke="#1e1e1e" stroke-width="1" fill="none"></path></g></g><mask></mask><g stroke-linecap="round"><g transform="translate(114.0859840308998 420.6034073191425) rotate(0 0.46336859951611586 -19.600006441682012)"><path d="M0.4 0.21 C0.54 -6.34, 1.05 -32.23, 1.19 -38.8 M-0.06 -0.17 C0 -6.63, 0.71 -33.15, 0.9 -39.56" stroke="#1e1e1e" stroke-width="1" fill="none"></path></g><g transform="translate(114.0859840308998 420.6034073191425) rotate(0 0.46336859951611586 -19.600006441682012)"><path d="M7.1 -20.96 C5.14 -27.17, 3.26 -33.79, 0.9 -39.56 M7.1 -20.96 C5.47 -26.38, 3.74 -32.01, 0.9 -39.56" stroke="#1e1e1e" stroke-width="1" fill="none"></path></g><g transform="translate(114.0859840308998 420.6034073191425) rotate(0 0.46336859951611586 -19.600006441682012)"><path d="M-6.31 -21.33 C-3.43 -27.45, -0.48 -33.94, 0.9 -39.56 M-6.31 -21.33 C-3.94 -26.6, -1.69 -32.11, 0.9 -39.56" stroke="#1e1e1e" stroke-width="1" fill="none"></path></g></g><mask></mask><g stroke-linecap="round"><g transform="translate(180.36953732406073 206.78554075047856) rotate(0 16.046510616119974 -28.883719109015914)"><path d="M-0.03 0.09 C5.56 -9.4, 27.58 -47.4, 32.91 -57.25 M-1.5 -0.9 C4.05 -10.73, 26.96 -49.53, 32.39 -59.09" stroke="#1e1e1e" stroke-width="1" fill="none"></path></g><g transform="translate(180.36953732406073 206.78554075047856) rotate(0 16.046510616119974 -28.883719109015914)"><path d="M27.99 -34.49 C29.3 -39.22, 31.11 -46.92, 32.39 -59.09 M27.99 -34.49 C28.62 -39.96, 29.16 -44, 32.39 -59.09" stroke="#1e1e1e" stroke-width="1" fill="none"></path></g><g transform="translate(180.36953732406073 206.78554075047856) rotate(0 16.046510616119974 -28.883719109015914)"><path d="M13.2 -43.07 C18.16 -45.68, 23.63 -51.24, 32.39 -59.09 M13.2 -43.07 C16.77 -46.82, 20.28 -49.14, 32.39 -59.09" stroke="#1e1e1e" stroke-width="1" fill="none"></path></g></g><mask></mask><g stroke-linecap="round"><g transform="translate(170.0783481882072 377.8020643179796) rotate(0 0.7294275079829049 20.672412680649636)"><path d="M-0.11 -0.31 C0.12 6.58, 1.72 34.84, 1.92 41.83 M0.83 0.72 C0.99 7.7, 1.5 34.45, 1.73 41.11" stroke="#1e1e1e" stroke-width="1" fill="none"></path></g><g transform="translate(170.0783481882072 377.8020643179796) rotate(0 0.7294275079829049 20.672412680649636)"><path d="M-5.84 21.86 C-3.34 30.27, 1.07 36.29, 1.73 41.11 M-5.84 21.86 C-3.12 28.44, -1.06 34.91, 1.73 41.11" stroke="#1e1e1e" stroke-width="1" fill="none"></path></g><g transform="translate(170.0783481882072 377.8020643179796) rotate(0 0.7294275079829049 20.672412680649636)"><path d="M8.31 21.5 C5.25 30.04, 4.1 36.2, 1.73 41.11 M8.31 21.5 C6.11 28.22, 3.24 34.83, 1.73 41.11" stroke="#1e1e1e" stroke-width="1" fill="none"></path></g></g><mask></mask></svg>